<?xml version="1.0" encoding="UTF-8"?>
<svg xmlns="http://www.w3.org/2000/svg" viewBox="0 0 2500 600" preserveAspectRatio="xMinYMin meet">
   <g transform="translate(50, 0)">
      <rect id="All_Lines"
            x="0"
            y="0"
            width="1330"
            height="150"
            fill="bisque"/>
      <rect id="Suho_Lines"
            x="0"
            y="0"
            width="160"
            height="150"
            fill="#E72121"/>
      <rect id="Baekhyun_Lines"
            x="160"
            y="0"
            width="200"
            height="150"
            fill="#E78421"/>
      <rect id="Chen_Lines"
            x="360"
            y="0"
            width="140"
            height="150"
            fill="#D4C92E"/>
      <rect id="Chanyeol_Lines"
            x="500"
            y="0"
            width="240"
            height="150"
            fill="#82E721"/>
      <rect id="Kai_Lines"
            x="740"
            y="0"
            width="150"
            height="150"
            fill="#21E7BF"/>
      <rect id="Sehun_Lines"
            x="890"
            y="0"
            width="200"
            height="150"
            fill="#215FE7"/>
      <rect id="NonMember_Lines"
            x="1090"
            y="0"
            width="240"
            height="150"
            fill="#E95FF2"/>
      <text x="65" y="75" font-size="35px" fill="white">16</text>
      <text x="240" y="75" font-size="35px" fill="white">20</text>
      <text x="410" y="75" font-size="35px" fill="white">14</text>
      <text x="600" y="75" font-size="35px" fill="white">24</text>
      <text x="795" y="75" font-size="35px" fill="white">15</text>
      <text x="970" y="75" font-size="35px" fill="white">20</text>
      <text x="1190" y="75" font-size="35px" fill="white">24</text>
         
      <text x="40" y="195" font-size="35px" fill="#E72121">Suho</text>
      <text x="190" y="195" font-size="35px" fill="#E78421">Baekhyun</text>
      <text x="392" y="195" font-size="35px" fill="#D4C92E">Chen</text>
      <text x="540" y="195" font-size="35px" fill="#82E721">Chanyeol</text>
      <text x="787" y="195" font-size="35px" fill="#21E7BF">Kai</text>
      <text x="945" y="195" font-size="35px" fill="#215FE7">Sehun</text>
      <text x="1115" y="195" font-size="35px" fill="#E95FF2">Non-Member</text>
         <text x="1345" y="45" font-size="35px" fill="white">133</text>
         <text x="1345" y="85" font-size="35px" fill="white">Total</text>
         <text x="1345" y="125" font-size="35px" fill="white">Lines</text>
   </g>
</svg>
