<?xml version="1.0" encoding="UTF-8"?>
<svg xmlns="http://www.w3.org/2000/svg" viewBox="0 0 2500 300" preserveAspectRatio="xMinYMin meet">
   <g transform="translate(750, 55)">
      <rect id="All_Lines_Together"
            x="0"
            y="0"
            width="1010"
            height="150"
            fill="bisque"/>
      <rect id="Renjun_Lines"
            x="0"
            y="0"
            width="70"
            height="150"
            fill="#E72121"/>
      <rect id="Jeno_Lines"
            x="70"
            y="0"
            width="90"
            height="150"
            fill="#E78421"/>
      <rect id="Haechan_Lines"
            x="160"
            y="0"
            width="90"
            height="150"
            fill="#D4C92E"/>
      <rect id="Jaemin_Lines"
            x="250"
            y="0"
            width="130"
            height="150"
            fill="#82E721"/>
      <rect id="Chenle_Lines"
            x="380"
            y="0"
            width="100"
            height="150"
            fill="#21E7BF"/>
      <rect id="Jisung_Lines"
            x="480"
            y="0"
            width="100"
            height="150"
            fill="#215FE7"/>
      <rect id="All_Lines"
            x="580"
            y="0"
            width="430"
            height="150"
            fill="#A5A3A3"/>
      <text x="20" y="75" font-size="35px" fill="white">7</text>
      <text x="105" y="75" font-size="35px" fill="white">9</text>
      <text x="195" y="75" font-size="35px" fill="white">9</text>
      <text x="295" y="75" font-size="35px" fill="white">13</text>
      <text x="410" y="75" font-size="35px" fill="white">10</text>
      <text x="510" y="75" font-size="35px" fill="white">10</text>
      <text x="775" y="75" font-size="35px" fill="white">43</text>
         
      <text x="-35" y="195" font-size="35px" fill="#E72121">Renjun</text>
      <text x="80" y="195" font-size="35px" fill="#E78421">Jeno</text>
      <text x="150" y="-30" font-size="35px" fill="#D4C92E">Haechan</text>
      <text x="265" y="195" font-size="35px" fill="#82E721">Jaemin</text>
      <text x="380" y="195" font-size="35px" fill="#21E7BF">Chenle</text>
      <text x="495" y="195" font-size="35px" fill="#21A7E7">Jisung</text>
      <text x="760" y="195" font-size="35px" fill="#A5A3A3">All</text>
         <text x="-67" y="45" font-size="35px" fill="white">101</text>
         <text x="-90" y="85" font-size="35px" fill="white">Total</text>
         <text x="-94" y="125" font-size="35px" fill="white">Lines</text>
   </g>
</svg>
