<?xml version="1.0" encoding="UTF-8"?>
<svg xmlns="http://www.w3.org/2000/svg" viewBox="0 0 2500 300" preserveAspectRatio="xMinYMin meet">
   <g transform="translate(900, 55)">
      <rect id="All_Lines_Together"
            x="0"
            y="0"
            width="690"
            height="150"
            fill="bisque"/>
      <rect id="BangChan_Lines"
            x="0"
            y="0"
            width="110"
            height="150"
            fill="#E72121"/>
      <rect id="LeeKnow_Lines"
            x="110"
            y="0"
            width="40"
            height="150"
            fill="#E78421"/>
      <rect id="Changbin_Lines"
            x="150"
            y="0"
            width="100"
            height="150"
            fill="#D4C92E"/>
      <rect id="Hyunjin_Lines"
            x="250"
            y="0"
            width="80"
            height="150"
            fill="#82E721"/>
      <rect id="Han_Lines"
            x="330"
            y="0"
            width="120"
            height="150"
            fill="#21E7BF"/>
      <rect id="Felix_Lines"
            x="450"
            y="0"
            width="130"
            height="150"
            fill="#215FE7"/>
      <rect id="Seungmin_Lines"
            x="580"
            y="0"
            width="50"
            height="150"
            fill="#8E21E7"/>
      <rect id="IN_Lines"
            x="630"
            y="0"
            width="50"
            height="150"
            fill="#FF19D1"/>
      <rect id="All_Lines"
            x="680"
            y="0"
            width="10"
            height="150"
            fill="#A5A3A3"/>
      <text x="40" y="75" font-size="35px" fill="white">11</text>
      <text x="120" y="75" font-size="35px" fill="white">4</text>
      <text x="180" y="75" font-size="35px" fill="white">10</text>
      <text x="280" y="75" font-size="35px" fill="white">8</text>
      <text x="370" y="75" font-size="35px" fill="white">12</text>
      <text x="495" y="75" font-size="35px" fill="white">13</text>
      <text x="595" y="75" font-size="35px" fill="white">5</text>
      <text x="645" y="75" font-size="35px" fill="white">5</text>
      <text x="675" y="75" font-size="35px" fill="white">1</text>
         
      <text x="-30" y="195" font-size="35px" fill="#E72121">Bang Chan</text>
      <text x="65" y="-30" font-size="35px" fill="#E78421">Lee Know</text>
      <text x="142" y="195" font-size="35px" fill="#D4C92E">Changbin</text>
      <text x="240" y="-30" font-size="35px" fill="#82E721">Hyunjin</text>
      <text x="362" y="195" font-size="35px" fill="#21E7BF">Han</text>
      <text x="480" y="195" font-size="35px" fill="#215FE7">Felix</text>
      <text x="525" y="-30" font-size="35px" fill="#8E21E7">Seungmin</text>
      <text x="628" y="195" font-size="35px" fill="#FF19D1">I.N</text>
      <text x="685" y="-30" font-size="35px" fill="#A5A3A3">All</text>
         <text x="705" y="45" font-size="35px" fill="white">69</text>
         <text x="705" y="85" font-size="35px" fill="white">Total</text>
         <text x="705" y="125" font-size="35px" fill="white">Lines</text>
   </g>
</svg>
